<svg width="1318" height="1136" xmlns="http://www.w3.org/2000/svg" xmlns:xlink="http://www.w3.org/1999/xlink">
  <defs>
    <linearGradient x1="54.695%" y1="124.837%" x2="16.987%" y2="-26.82%" id="c">
      <stop stop-color="#AF2996" offset="0%"/>
      <stop stop-color="#A0C3D2" offset="100%"/>
    </linearGradient><path d="M274.956 488.303c-92.58 30.94-192.296-20.308-222.717-114.462-30.422-94.154 19.937-195.565 112.516-226.504 92.58-30.94 192.296 20.307 222.749 114.461 30.421 94.155-19.969 195.566-112.548 226.505zM1317.642 343.71c74.538 229.09-48.887 475.822-275.638 551.087-108.844 36.144-221.64 26.102-317.815-19.291-18.125 61.073-55.473 116.825-110.851 156.675-132.394 95.221-316.122 64.019-410.384-69.722-94.263-133.709-63.375-319.305 69.019-414.526 61.368-44.158 133.711-60.789 203.138-52.965-6.491-189.112 110.099-367.644 296.993-429.7 226.751-75.296 471 49.385 545.538 278.442z" id="b"/>
    <filter x="-.2%" y="-.1%" width="100.3%" height="100.4%" filterUnits="objectBoundingBox" id="a">
      <feOffset dy="1" in="SourceAlpha" result="shadowOffsetOuter1"/>
      <feGaussianBlur stdDeviation=".5" in="shadowOffsetOuter1" result="shadowBlurOuter1"/>
      <feComposite in="shadowBlurOuter1" in2="SourceAlpha" operator="out" result="shadowBlurOuter1"/>
      <feColorMatrix values="0 0 0 0 0.2 0 0 0 0 0.2 0 0 0 0 0.2 0 0 0 0.1 0" in="shadowBlurOuter1"/>
    </filter>
  </defs>
  <g transform="rotate(-12 691.37 565.32)" fill="none" fill-rule="evenodd">
    <use fill="#000" filter="url(#a)" xlink:href="#b"/>
    <use fill-opacity=".6" fill="url(#c)" xlink:href="#b"/>
  </g>
</svg>
